<mxfile host="app.diagrams.net" agent="Mozilla/5.0 (Macintosh; Intel Mac OS X 10_15_7) AppleWebKit/537.36 (KHTML, like Gecko) Chrome/132.0.0.0 Safari/537.36" version="26.0.16">
  <diagram name="Page-1" id="7_-GzbLXJ9eycd6GExgi">
    <mxGraphModel dx="4947" dy="3426" grid="1" gridSize="10" guides="1" tooltips="1" connect="1" arrows="1" fold="1" page="1" pageScale="1" pageWidth="850" pageHeight="1100" math="0" shadow="0">
      <root>
        <mxCell id="0" />
        <mxCell id="1" parent="0" />
        <mxCell id="wmthVNG2z1a0UWxeD-wj-1" value="" style="whiteSpace=wrap;html=1;aspect=fixed;strokeWidth=5;" vertex="1" parent="1">
          <mxGeometry width="1500" height="1500" as="geometry" />
        </mxCell>
        <mxCell id="wmthVNG2z1a0UWxeD-wj-3" value="" style="endArrow=none;html=1;rounded=0;exitX=0.331;exitY=-0.003;exitDx=0;exitDy=0;exitPerimeter=0;entryX=0.34;entryY=1.002;entryDx=0;entryDy=0;entryPerimeter=0;jumpSize=0;endSize=0;startSize=0;strokeWidth=5;" edge="1" parent="1" target="wmthVNG2z1a0UWxeD-wj-1">
          <mxGeometry width="50" height="50" relative="1" as="geometry">
            <mxPoint x="500" y="5.684341886080802e-14" as="sourcePoint" />
            <mxPoint x="506.6700000000001" y="1434" as="targetPoint" />
          </mxGeometry>
        </mxCell>
        <mxCell id="wmthVNG2z1a0UWxeD-wj-4" value="" style="endArrow=none;html=1;rounded=0;exitX=0.331;exitY=-0.003;exitDx=0;exitDy=0;exitPerimeter=0;jumpSize=0;endSize=0;startSize=0;entryX=0.673;entryY=1.003;entryDx=0;entryDy=0;entryPerimeter=0;strokeWidth=5;" edge="1" parent="1">
          <mxGeometry width="50" height="50" relative="1" as="geometry">
            <mxPoint x="1000" y="5.500000000000057" as="sourcePoint" />
            <mxPoint x="1009.4999999999991" y="1499.999999999999" as="targetPoint" />
          </mxGeometry>
        </mxCell>
        <mxCell id="wmthVNG2z1a0UWxeD-wj-5" value="" style="endArrow=none;html=1;rounded=0;exitX=-0.001;exitY=0.345;exitDx=0;exitDy=0;exitPerimeter=0;entryX=0.998;entryY=0.34;entryDx=0;entryDy=0;entryPerimeter=0;strokeWidth=5;" edge="1" parent="1" source="wmthVNG2z1a0UWxeD-wj-1" target="wmthVNG2z1a0UWxeD-wj-1">
          <mxGeometry width="50" height="50" relative="1" as="geometry">
            <mxPoint x="490" y="510" as="sourcePoint" />
            <mxPoint x="540" y="460" as="targetPoint" />
          </mxGeometry>
        </mxCell>
        <mxCell id="wmthVNG2z1a0UWxeD-wj-6" value="" style="endArrow=none;html=1;rounded=0;exitX=-0.001;exitY=0.345;exitDx=0;exitDy=0;exitPerimeter=0;entryX=0.998;entryY=0.34;entryDx=0;entryDy=0;entryPerimeter=0;strokeWidth=5;" edge="1" parent="1">
          <mxGeometry width="50" height="50" relative="1" as="geometry">
            <mxPoint x="1" y="1008" as="sourcePoint" />
            <mxPoint x="1500" y="1000" as="targetPoint" />
          </mxGeometry>
        </mxCell>
        <mxCell id="wmthVNG2z1a0UWxeD-wj-8" value="" style="shape=flexArrow;endArrow=classic;html=1;rounded=0;strokeWidth=5;" edge="1" parent="1">
          <mxGeometry width="50" height="50" relative="1" as="geometry">
            <mxPoint x="970" y="770" as="sourcePoint" />
            <mxPoint x="1370" y="770" as="targetPoint" />
          </mxGeometry>
        </mxCell>
        <mxCell id="wmthVNG2z1a0UWxeD-wj-12" value="Text" style="edgeLabel;html=1;align=center;verticalAlign=middle;resizable=0;points=[];" vertex="1" connectable="0" parent="wmthVNG2z1a0UWxeD-wj-8">
          <mxGeometry x="0.4547" y="8" relative="1" as="geometry">
            <mxPoint as="offset" />
          </mxGeometry>
        </mxCell>
        <mxCell id="wmthVNG2z1a0UWxeD-wj-9" value="" style="shape=flexArrow;endArrow=classic;html=1;rounded=0;strokeWidth=5;" edge="1" parent="1">
          <mxGeometry width="50" height="50" relative="1" as="geometry">
            <mxPoint x="748.5699999999999" y="890" as="sourcePoint" />
            <mxPoint x="748.5699999999999" y="1270" as="targetPoint" />
          </mxGeometry>
        </mxCell>
        <mxCell id="wmthVNG2z1a0UWxeD-wj-10" value="" style="shape=flexArrow;endArrow=classic;html=1;rounded=0;strokeWidth=5;" edge="1" parent="1">
          <mxGeometry width="50" height="50" relative="1" as="geometry">
            <mxPoint x="748.5699999999999" y="620" as="sourcePoint" />
            <mxPoint x="748.5699999999999" y="260" as="targetPoint" />
          </mxGeometry>
        </mxCell>
        <mxCell id="wmthVNG2z1a0UWxeD-wj-11" value="" style="shape=flexArrow;endArrow=classic;html=1;rounded=0;strokeWidth=5;" edge="1" parent="1">
          <mxGeometry width="50" height="50" relative="1" as="geometry">
            <mxPoint x="559.9999999999999" y="770" as="sourcePoint" />
            <mxPoint x="180" y="770" as="targetPoint" />
          </mxGeometry>
        </mxCell>
        <mxCell id="wmthVNG2z1a0UWxeD-wj-13" value="&lt;font style=&quot;font-size: 63px;&quot;&gt;&lt;b&gt;Square&lt;/b&gt;&lt;/font&gt;" style="text;html=1;align=center;verticalAlign=middle;whiteSpace=wrap;rounded=0;" vertex="1" parent="1">
          <mxGeometry x="720" y="750" width="60" height="30" as="geometry" />
        </mxCell>
        <mxCell id="wmthVNG2z1a0UWxeD-wj-14" value="&lt;font style=&quot;font-size: 60px;&quot;&gt;&lt;b&gt;T1&lt;/b&gt;&lt;/font&gt;" style="text;html=1;align=center;verticalAlign=middle;whiteSpace=wrap;rounded=0;" vertex="1" parent="1">
          <mxGeometry x="200" y="670" width="60" height="30" as="geometry" />
        </mxCell>
        <mxCell id="wmthVNG2z1a0UWxeD-wj-15" value="&lt;font style=&quot;font-size: 60px;&quot;&gt;&lt;b&gt;T2&lt;/b&gt;&lt;/font&gt;" style="text;html=1;align=center;verticalAlign=middle;whiteSpace=wrap;rounded=0;" vertex="1" parent="1">
          <mxGeometry x="720" y="670" width="60" height="30" as="geometry" />
        </mxCell>
        <mxCell id="wmthVNG2z1a0UWxeD-wj-16" value="&lt;br/&gt;&lt;br/&gt;&lt;br/&gt;&lt;br/&gt;&lt;br/&gt;&lt;br/&gt;&lt;span style=&quot;font-family: Aptos; color: rgb(64, 64, 64); font-style: italic;&quot;&gt;&lt;font style=&quot;font-size: 60px;&quot;&gt;&lt;b&gt;l&amp;nbsp;&lt;/b&gt;&lt;/font&gt;&lt;/span&gt;" style="text;html=1;align=center;verticalAlign=middle;whiteSpace=wrap;rounded=0;" vertex="1" parent="1">
          <mxGeometry x="425" y="580" width="60" height="100" as="geometry" />
        </mxCell>
        <mxCell id="wmthVNG2z1a0UWxeD-wj-17" value="" style="endArrow=classic;startArrow=classic;html=1;rounded=0;strokeWidth=9;" edge="1" parent="1">
          <mxGeometry width="50" height="50" relative="1" as="geometry">
            <mxPoint x="420" y="1000" as="sourcePoint" />
            <mxPoint x="420" y="520" as="targetPoint" />
          </mxGeometry>
        </mxCell>
        <mxCell id="wmthVNG2z1a0UWxeD-wj-18" value="&lt;b&gt;&lt;font style=&quot;font-size: 70px;&quot;&gt;&lt;span style=&quot;language:en-US;font-style:normal&quot;&gt;ρ&lt;/span&gt;&lt;/font&gt;&lt;span style=&quot;color: light-dark(rgb(64, 64, 64), rgb(182, 182, 182)); font-size: 70px; background-color: transparent;&quot;&gt;1&lt;/span&gt;&lt;/b&gt;" style="text;whiteSpace=wrap;html=1;" vertex="1" parent="1">
          <mxGeometry x="190" y="870" width="60" height="50" as="geometry" />
        </mxCell>
        <mxCell id="wmthVNG2z1a0UWxeD-wj-19" value="&lt;font style=&quot;font-size: 70px;&quot;&gt;&lt;span style=&quot;language:en-US;font-style:normal&quot;&gt;&lt;b&gt;ρ&lt;font color=&quot;#404040&quot;&gt;2&lt;/font&gt;&lt;/b&gt;&lt;/span&gt;&lt;/font&gt;" style="text;whiteSpace=wrap;html=1;" vertex="1" parent="1">
          <mxGeometry x="840" y="870" width="60" height="50" as="geometry" />
        </mxCell>
        <mxCell id="wmthVNG2z1a0UWxeD-wj-20" value="&lt;b&gt;&lt;span style=&quot;font-size: 70px; background-color: transparent;&quot;&gt;c&lt;/span&gt;&lt;span style=&quot;color: light-dark(rgb(64, 64, 64), rgb(182, 182, 182)); font-size: 70px; background-color: transparent;&quot;&gt;1&lt;/span&gt;&lt;/b&gt;" style="text;whiteSpace=wrap;html=1;" vertex="1" parent="1">
          <mxGeometry x="40" y="730" width="60" height="50" as="geometry" />
        </mxCell>
        <mxCell id="wmthVNG2z1a0UWxeD-wj-21" value="&lt;span style=&quot;font-size: 70px; background-color: transparent;&quot;&gt;&lt;b&gt;c&lt;font color=&quot;#404040&quot;&gt;2&lt;/font&gt;&lt;/b&gt;&lt;/span&gt;" style="text;whiteSpace=wrap;html=1;" vertex="1" parent="1">
          <mxGeometry x="880" y="550" width="60" height="50" as="geometry" />
        </mxCell>
        <mxCell id="wmthVNG2z1a0UWxeD-wj-23" value="&lt;span style=&quot;font-family: &amp;quot;Cambria Math&amp;quot;; font-style: normal;&quot;&gt;&lt;font style=&quot;font-size: 60px;&quot;&gt;&lt;b&gt;χ2&lt;/b&gt;&lt;/font&gt;&lt;/span&gt;" style="text;whiteSpace=wrap;html=1;" vertex="1" parent="1">
          <mxGeometry x="590" y="540" width="50" height="50" as="geometry" />
        </mxCell>
        <mxCell id="wmthVNG2z1a0UWxeD-wj-26" value="&lt;span style=&quot;font-family: &amp;quot;Cambria Math&amp;quot;; font-style: normal;&quot;&gt;&lt;font style=&quot;font-size: 60px;&quot;&gt;&lt;b&gt;χ1&lt;/b&gt;&lt;/font&gt;&lt;/span&gt;" style="text;whiteSpace=wrap;html=1;" vertex="1" parent="1">
          <mxGeometry x="80" y="560" width="50" height="50" as="geometry" />
        </mxCell>
        <mxCell id="wmthVNG2z1a0UWxeD-wj-28" value="&lt;span style=&quot;font-size: 70px; background-color: transparent;&quot;&gt;&lt;b&gt;&lt;font&gt;h&lt;/font&gt;&lt;font color=&quot;#404040&quot;&gt;2&lt;/font&gt;&lt;/b&gt;&lt;/span&gt;" style="text;whiteSpace=wrap;html=1;" vertex="1" parent="1">
          <mxGeometry x="550" y="870" width="60" height="50" as="geometry" />
        </mxCell>
        <mxCell id="wmthVNG2z1a0UWxeD-wj-29" value="&lt;span style=&quot;font-size: 70px; background-color: transparent;&quot;&gt;&lt;b&gt;&lt;font&gt;h&lt;font color=&quot;#404040&quot;&gt;1&lt;/font&gt;&lt;/font&gt;&lt;/b&gt;&lt;/span&gt;" style="text;whiteSpace=wrap;html=1;" vertex="1" parent="1">
          <mxGeometry x="30" y="890" width="60" height="50" as="geometry" />
        </mxCell>
      </root>
    </mxGraphModel>
  </diagram>
</mxfile>
